<svg viewBox="0 0 24 24" xmlns="http://www.w3.org/2000/svg" width="200" height="200"><path d="m15.54 3.83a8.39 8.39 0 0 0 -1.82.17 8 8 0 0 0 -1.72-.17 7.94 7.94 0 0 0 -1.77.2 7.94 7.94 0 0 0 -1.77-.2 8.26 8.26 0 0 0 0 16.52 7.94 7.94 0 0 0 1.77-.2 7.94 7.94 0 0 0 1.77.2 8.19 8.19 0 0 0 1.73-.21 8.25 8.25 0 1 0 1.81-16.31zm-14.34 8.26a7.26 7.26 0 0 1 6.8-7.24 8.25 8.25 0 0 0 0 14.48 7.25 7.25 0 0 1 -6.8-7.24zm9 7a7.24 7.24 0 0 1 1.35-14.23 8.26 8.26 0 0 0 0 14.46 7.25 7.25 0 0 1 -1.32-.2zm5.31.23a7.26 7.26 0 1 1 7.25-7.26 7.26 7.26 0 0 1 -7.22 7.29z"/><path d="m20.92 11.87h-2.4a.5.5 0 0 0 -.45.28l-1.23 2.45-1.84-6.26a.49.49 0 0 0 -.48-.34.51.51 0 0 0 -.49.29l-1.7 3.6h-2.24a.5.5 0 0 0 -.5.5.5.5 0 0 0 .5.5h2.56a.51.51 0 0 0 .45-.28l1.28-2.72 1.87 6.23a.48.48 0 0 0 .43.35h.05a.5.5 0 0 0 .44-.28l1.66-3.31h2.09a.5.5 0 0 0 .5-.5.5.5 0 0 0 -.5-.51z"/></svg>
